<?xml version="1.0" standalone="no"?>
<!DOCTYPE svg PUBLIC "-//W3C//DTD SVG 1.1//EN" "http://www.w3.org/Graphics/SVG/1.1/DTD/svg11.dtd" >
<svg xmlns="http://www.w3.org/2000/svg" xmlns:xlink="http://www.w3.org/1999/xlink" version="1.1">
<metadata>
Created by FontForge 20160405 at Sat Feb 24 08:31:27 2018
 By Apache
Copyright \(c\) 2014 by Youssef Habchi. All rights reserved.
</metadata>
<defs>
<font id="Kirvy-Bold" horiz-adv-x="569" >
  <font-face 
    font-family="Kirvy"
    font-weight="700"
    font-stretch="normal"
    units-per-em="1000"
    panose-1="0 0 5 3 0 0 0 0 0 0"
    ascent="800"
    descent="-200"
    x-height="609"
    cap-height="810"
    bbox="-68 -275 1042 1088"
    underline-thickness="50"
    underline-position="-150"
    stemh="100"
    stemv="100"
    unicode-range="U+0020-2122"
  />
<missing-glyph horiz-adv-x="297" 
 />
    <glyph glyph-name=".notdef" horiz-adv-x="297" 
 />
    <glyph glyph-name="quotedbl" unicode="&#x22;" horiz-adv-x="291" 
d="M59 642v168h76v-168h-76zM167 642v168h75v-168h-75z" />
    <glyph glyph-name="numbersign" unicode="#" horiz-adv-x="725" 
d="M685 810l-81 -244h71v-96h-103l-37 -111h74v-96h-106l-87 -263h-102l87 263h-163l-87 -263h-101l87 263h-64v96h96l37 111h-67v96h99l81 244h101l-81 -244h163l81 244h102zM434 359l37 111h-163l-37 -111h163z" />
    <glyph glyph-name="dollar" unicode="$" horiz-adv-x="585" 
d="M429 403c50 -34 78 -88 78 -151c0 -123 -83 -200 -188 -216v-55h-97v54c-58 5 -113 25 -156 69c-11 11 -18 21 -53 71l79 55c35 -51 61 -88 129 -98v241c-108 33 -186 90 -186 199s71 181 186 196v62h97v-65c57 -13 105 -47 142 -98l28 -39l-80 -56l-28 40
c-17 24 -39 42 -62 51v-214c40 -12 77 -24 111 -46zM169 501c13 -9 31 -16 50 -23v192c-63 -10 -88 -40 -88 -98c0 -34 11 -54 38 -71zM316 137c59 14 92 54 92 116c0 50 -27 72 -92 95v-211z" />
    <glyph glyph-name="percent" unicode="%" horiz-adv-x="774" 
d="M561 810h110l-468 -810h-110zM195 504c-82 0 -147 70 -147 154c0 83 65 153 147 153c83 0 148 -70 148 -153c0 -84 -65 -154 -148 -154zM195 717c-27 0 -52 -25 -52 -59s25 -60 52 -60s53 26 53 60s-26 59 -53 59zM570 307c82 0 147 -69 147 -153
c0 -83 -65 -153 -147 -153c-83 0 -148 70 -148 153c0 84 65 153 148 153zM570 95c27 0 52 25 52 59s-25 59 -52 59s-53 -25 -53 -59s26 -59 53 -59z" />
    <glyph glyph-name="ampersand" unicode="&#x26;" horiz-adv-x="713" 
d="M593 73l-1 -99c-52 15 -102 56 -139 90c-54 -43 -119 -64 -193 -64c-139 0 -240 85 -240 206c0 93 61 186 159 246c-24 38 -54 99 -54 161c0 105 83 192 178 192c111 0 190 -75 190 -176c0 -122 -92 -183 -186 -222c38 -70 93 -146 143 -204c36 62 56 148 56 253v24h96
v-24c0 -133 -30 -244 -84 -325c-1 0 51 -50 75 -58zM222 368v1c-68 -49 -104 -108 -104 -162c0 -64 52 -110 143 -110c50 0 91 13 125 37c-61 69 -117 152 -164 234zM311 713c-52 0 -85 -61 -85 -91c0 -54 14 -80 40 -123c58 21 132 56 132 129c0 52 -36 85 -87 85z" />
    <glyph glyph-name="quotesingle" unicode="'" horiz-adv-x="252" 
d="M81 589l-35 43c19 16 24 48 24 92v87h97v-87c0 -63 -24 -97 -86 -135z" />
    <glyph glyph-name="parenleft" unicode="(" horiz-adv-x="376" 
d="M147 827l103 1c-82 -94 -121 -303 -121 -433s39 -342 121 -436l-103 1c-65 91 -113 285 -113 433s48 342 113 434z" />
    <glyph glyph-name="parenright" unicode=")" horiz-adv-x="379" 
d="M81 828l102 -1c65 -92 114 -286 114 -434s-49 -342 -114 -433l-102 -1c82 94 121 306 121 436s-39 339 -121 433z" />
    <glyph glyph-name="asterisk" unicode="*" horiz-adv-x="538" 
d="M426 655v-80h-102l82 -109l-62 -48l-100 132l-99 -132l-63 48l83 109h-102v80h102l-83 109l63 48l99 -132l100 132l62 -48l-82 -109h102z" />
    <glyph glyph-name="plus" unicode="+" horiz-adv-x="638" 
d="M340 37h-97v215h-215v97h215v214h97v-214h214v-97h-214v-215z" />
    <glyph glyph-name="comma" unicode="," horiz-adv-x="230" 
d="M34 -158l-23 51c23 10 42 44 42 88v106h97v-106c0 -63 -46 -118 -116 -139z" />
    <glyph glyph-name="hyphen" unicode="-" horiz-adv-x="433" 
d="M40 244v97h315v-97h-315z" />
    <glyph glyph-name="period" unicode="." horiz-adv-x="239" 
d="M30 58c0 40 31 72 71 72s72 -32 72 -72s-32 -71 -72 -71s-71 31 -71 71z" />
    <glyph glyph-name="slash" unicode="/" horiz-adv-x="523" 
d="M166 -1h-102l268 811h103z" />
    <glyph glyph-name="zero" unicode="0" horiz-adv-x="589" 
d="M294 0c-63 0 -121 23 -166 67c-78 77 -95 182 -95 338c0 69 5 140 16 190c28 127 125 215 245 215c63 0 121 -23 166 -67c77 -77 94 -184 94 -338c0 -70 -6 -140 -16 -190c-27 -127 -123 -215 -244 -215zM294 715c-86 0 -134 -69 -149 -140c-9 -42 -14 -106 -14 -170
s5 -128 14 -170c15 -71 63 -140 149 -140s134 69 149 140c9 42 13 106 13 170s-4 128 -13 170c-15 71 -63 140 -149 140z" />
    <glyph glyph-name="one" unicode="1" horiz-adv-x="348" 
d="M251 0h-95v630h-97v87c57 0 97 33 97 93h95v-810z" />
    <glyph glyph-name="two" unicode="2" horiz-adv-x="567" 
d="M499 0h-449v46c0 95 25 175 76 243c44 58 98 97 149 133c80 57 130 95 131 174c0 68 -55 114 -125 114c-69 0 -116 -34 -150 -86l-83 49c25 42 80 135 233 135c215 0 221 -207 221 -210c0 -60 -19 -111 -58 -157c-110 -128 -271 -151 -295 -344h350v-97z" />
    <glyph glyph-name="three" unicode="3" horiz-adv-x="568" 
d="M45 142l82 53c27 -49 87 -96 169 -96c71 0 145 53 145 138c0 79 -54 138 -217 138h-24v97h24c119 0 182 48 182 118c0 60 -47 123 -129 123c-94 0 -135 -49 -162 -109l-83 50c44 90 132 156 246 156c124 0 226 -99 226 -219c0 -61 -30 -125 -81 -161
c66 -38 114 -112 114 -194c0 -129 -109 -236 -242 -236c-85 0 -145 33 -180 59c-31 23 -61 62 -70 83z" />
    <glyph glyph-name="four" unicode="4" horiz-adv-x="606" 
d="M549 376l1 -98h-88v-278h-97v278h-338l-1 82l351 450h84v-434h88zM162 375h203v259z" />
    <glyph glyph-name="five" unicode="5" horiz-adv-x="561" 
d="M270 524c140 0 252 -115 252 -260s-114 -264 -250 -264c-101 0 -190 62 -230 157l-19 45l90 37l18 -45c24 -60 81 -98 140 -98c84 0 153 74 153 166c0 91 -70 166 -153 166c-55 0 -110 -38 -134 -76l-85 3l19 455h403v-97h-310l-9 -218c36 17 74 29 115 29z" />
    <glyph glyph-name="six" unicode="6" horiz-adv-x="591" 
d="M476 449c47 -48 71 -115 71 -185c0 -144 -111 -264 -247 -264c-67 0 -130 28 -177 79c-60 65 -75 133 -75 369c0 109 8 221 78 294c44 46 106 68 181 68c79 0 150 -42 197 -108l28 -39l-80 -56l-27 40c-29 43 -73 66 -119 66c-138 0 -163 -99 -165 -244
c44 38 98 59 155 59c67 0 131 -27 180 -79zM301 96c80 0 150 73 150 167s-70 167 -150 167c-81 0 -151 -73 -151 -167s70 -167 151 -167z" />
    <glyph glyph-name="seven" unicode="7" horiz-adv-x="584" 
d="M274 0h-97v24c0 198 101 473 250 689h-355v97h488v-80c-155 -207 -286 -481 -286 -706v-24z" />
    <glyph glyph-name="eight" unicode="8" horiz-adv-x="584" 
d="M440 428c60 -43 98 -112 98 -190c0 -133 -114 -238 -248 -238s-248 105 -248 238c0 76 39 147 102 191c-47 40 -82 99 -82 167c0 118 106 214 230 214c123 0 230 -96 230 -214c0 -66 -33 -124 -82 -168zM158 596c0 -63 57 -122 133 -122s133 59 133 122s-57 118 -133 118
s-133 -55 -133 -118zM290 96c85 0 152 65 152 142c0 76 -67 141 -152 141s-152 -65 -152 -141c0 -77 67 -142 152 -142z" />
    <glyph glyph-name="nine" unicode="9" horiz-adv-x="598" 
d="M112 361c-47 48 -71 115 -71 185c0 144 111 264 247 264c67 0 130 -28 177 -79c60 -65 74 -135 74 -374c0 -106 -9 -218 -77 -289c-45 -47 -108 -68 -182 -68c-39 0 -78 11 -113 30c-33 18 -76 54 -112 117l80 56c42 -78 100 -106 146 -106c137 0 163 99 165 244
c-44 -38 -98 -59 -155 -59c-67 0 -130 27 -179 79zM287 714c-80 0 -150 -73 -150 -167s70 -167 150 -167c81 0 150 73 150 167s-69 167 -150 167z" />
    <glyph glyph-name="colon" unicode=":" horiz-adv-x="239" 
d="M46 441c0 40 31 72 71 72s72 -32 72 -72s-32 -71 -72 -71s-71 31 -71 71zM46 108c0 40 31 72 71 72s72 -32 72 -72s-32 -71 -72 -71s-71 31 -71 71z" />
    <glyph glyph-name="semicolon" unicode=";" horiz-adv-x="277" 
d="M64 -141l-23 51c23 10 42 44 42 88v89h97v-89c0 -63 -46 -118 -116 -139zM62 362c0 40 31 72 71 72s72 -32 72 -72s-32 -71 -72 -71s-71 31 -71 71z" />
    <glyph glyph-name="less" unicode="&#x3c;" horiz-adv-x="654" 
d="M528 -14l-503 302v56l503 302v-113l-364 -217l364 -216v-114z" />
    <glyph glyph-name="equal" unicode="=" horiz-adv-x="662" 
d="M115 354v97h415v-97h-415zM115 130v97h415v-97h-415z" />
    <glyph glyph-name="greater" unicode="&#x3e;" horiz-adv-x="655" 
d="M580 288l-502 -302v114l363 216l-363 217v113l502 -302v-56z" />
    <glyph glyph-name="question" unicode="?" horiz-adv-x="547" 
d="M274 810c123 0 231 -95 231 -232c0 -130 -83 -221 -201 -254v-82h-96v153c49 8 196 24 196 184c0 74 -56 139 -130 139c-75 0 -139 -53 -161 -111l-78 55c49 94 129 148 239 148zM191 58c0 40 31 72 71 72s72 -32 72 -72s-32 -71 -72 -71s-71 31 -71 71z" />
    <glyph glyph-name="at" unicode="@" horiz-adv-x="1006" 
d="M706 0l57 -76c-78 -68 -177 -115 -282 -112c-266 0 -442 252 -442 505c0 294 211 506 442 506c278 0 443 -266 443 -507c0 -154 -88 -316 -203 -316h-15zM686 544h82c-12 21 -29 42 -47 65c-61 73 -148 116 -242 116c-187 0 -345 -180 -345 -408s158 -407 347 -407
c84 0 160 41 222 92c-58 7 -80 44 -89 66c-43 -32 -94 -50 -146 -50c-159 0 -265 150 -265 299c0 158 116 299 265 299c80 0 165 -45 209 -116zM469 114c88 0 166 87 166 200c0 114 -78 200 -166 200c-89 0 -166 -86 -166 -200c0 -113 77 -200 166 -200zM827 321
c0 55 0 119 -47 202l-78 -390c-4 -20 -4 -34 18 -34c61 0 107 161 107 222z" />
    <glyph glyph-name="A" unicode="A" horiz-adv-x="728" 
d="M110 0h-100l282 810h80l282 -809h-102l-91 258s-18 -9 -54 -9l-165 1c-41 0 -53 -22 -54 -26zM332 632l-105 -296s9 6 29 6h132c32 0 40 11 40 11z" />
    <glyph glyph-name="B" unicode="B" horiz-adv-x="723" 
d="M525 429c58 -42 95 -116 95 -192c0 -63 -24 -124 -69 -168c-45 -45 -104 -69 -167 -69h-338v810h338c119 0 216 -97 216 -216c0 -66 -30 -126 -75 -165zM383 713l-241 -2v-216c0 -8 5 -22 35 -22h206c66 0 119 55 119 121s-53 119 -119 119zM382 95c76 1 139 64 139 141
c0 76 -63 139 -140 139h-202c-29 0 -38 5 -38 5v-285h241z" />
    <glyph glyph-name="C" unicode="C" horiz-adv-x="744" 
d="M368 0c-204 0 -334 203 -334 404c0 213 141 406 334 406c106 0 204 -62 266 -162l26 -42l-84 -51l-25 42c-45 76 -116 116 -184 116c-125 0 -236 -133 -236 -308c0 -174 111 -307 236 -307c68 0 139 40 184 116l25 42l84 -51l-26 -42c-62 -101 -162 -163 -266 -163z" />
    <glyph glyph-name="D" unicode="D" horiz-adv-x="728" 
d="M295 0h-248v810h248c195 0 331 -198 331 -404c0 -165 -105 -406 -331 -406zM144 97h150c125 0 234 142 234 309c0 174 -110 306 -233 306h-151v-615z" />
    <glyph glyph-name="E" unicode="E" horiz-adv-x="646" 
d="M549 0h-502v810h501v-97h-404v-248s11 8 47 8h357v-97h-364c-28 0 -39 -15 -39 -23v-256h404v-97z" />
    <glyph glyph-name="F" unicode="F" horiz-adv-x="657" 
d="M145 0h-98v810h501v-97h-404v-248s11 8 47 8h357v-97h-364c-28 0 -39 -15 -39 -23v-353z" />
    <glyph glyph-name="G" unicode="G" horiz-adv-x="801" 
d="M645 448c25 0 48 -19 48 -47c0 -220 -164 -401 -327 -401c-201 0 -333 204 -333 404c0 215 144 406 333 406c109 0 214 -67 286 -198l-85 -47c-54 103 -129 147 -201 147c-125 0 -236 -133 -236 -308c0 -174 111 -306 236 -306c87 0 203 103 226 254h-169
c-34 0 -51 -15 -64 -49l-91 34c21 58 57 111 130 111h247z" />
    <glyph glyph-name="H" unicode="H" horiz-adv-x="701" 
d="M589 0h-95v382c-17 -5 -29 -7 -48 -7h-247c-20 0 -53 -5 -53 -26v-349h-97v810h97v-344c16 4 32 7 52 7h243c17 0 51 9 51 27v310h97v-810z" />
    <glyph glyph-name="I" unicode="I" horiz-adv-x="213" 
d="M48 0v810h97v-810h-97z" />
    <glyph glyph-name="J" unicode="J" horiz-adv-x="462" 
d="M22 0v98h25c124 0 234 132 234 306v406h97v-406c0 -213 -144 -404 -331 -404h-25z" />
    <glyph glyph-name="K" unicode="K" horiz-adv-x="681" 
d="M641 0h-143l-353 325v-325h-97v810h97v-295l316 295h142c-237 -221 -352 -328 -396 -370c-9 -9 -13 -14 -13 -20c0 -7 5 -14 13 -21c38 -35 144 -132 434 -399z" />
    <glyph glyph-name="L" unicode="L" horiz-adv-x="662" 
d="M145 97h428v-97h-525v810h97v-713z" />
    <glyph glyph-name="M" unicode="M" horiz-adv-x="824" 
d="M608 810h91v-810h-97v510l-186 -510h-85l-186 510v-510h-97v810h91l234 -644z" />
    <glyph glyph-name="N" unicode="N" horiz-adv-x="695" 
d="M583 0h-114l-324 595v-595h-97v810h90l348 -640v640h97v-810z" />
    <glyph glyph-name="O" unicode="O" horiz-adv-x="809" 
d="M367 -1c-209 0 -333 214 -333 405c0 202 131 406 333 406c193 0 332 -197 332 -406c0 -179 -115 -405 -332 -405zM367 711c-125 0 -236 -133 -236 -307c0 -175 111 -308 236 -308s235 133 235 308c0 174 -110 307 -235 307z" />
    <glyph glyph-name="P" unicode="P" horiz-adv-x="690" 
d="M48 810h339c119 0 215 -98 215 -216c0 -120 -97 -218 -216 -218h-204c-33 0 -37 -18 -37 -22v-354h-97v810zM386 473c65 1 118 56 118 121c0 66 -53 120 -118 120h-241v-247s7 6 39 6h202z" />
    <glyph glyph-name="Q" unicode="Q" horiz-adv-x="809" 
d="M643 93v-96h-11c-41 0 -77 11 -116 46c-40 -30 -98 -44 -149 -44c-194 0 -333 197 -333 405c0 202 131 406 333 406c193 0 332 -197 332 -406c0 -105 -34 -221 -109 -299c11 -10 22 -13 38 -13c5 0 10 1 15 1zM368 98c125 0 235 133 235 307c0 175 -110 308 -235 308
c-126 0 -236 -133 -236 -308c0 -174 110 -307 236 -307z" />
    <glyph glyph-name="R" unicode="R" horiz-adv-x="705" 
d="M48 810h339c119 0 215 -98 215 -216c0 -94 -60 -174 -142 -205l173 -389h-105l-156 350c-12 26 -29 26 -31 26h-159c-33 0 -37 -18 -37 -22v-354h-97v810zM386 473c65 1 118 56 118 121c0 66 -53 120 -118 120h-241v-247s7 6 39 6h202z" />
    <glyph glyph-name="S" unicode="S" horiz-adv-x="706" 
d="M318 0c-109 0 -208 21 -309 148l77 58c42 -55 92 -110 231 -110c126 0 192 57 192 143c0 72 -59 97 -199 131c-117 28 -275 69 -275 224c0 130 97 216 256 216c103 0 187 -24 279 -130l-77 -58c-77 76 -131 94 -203 94c-106 0 -158 -50 -158 -119c0 -75 60 -98 202 -133
c113 -28 272 -69 272 -225c0 -158 -131 -239 -288 -239z" />
    <glyph glyph-name="T" unicode="T" horiz-adv-x="721" 
d="M632 810v-97h-263v-713h-97v713h-250v97h610z" />
    <glyph glyph-name="U" unicode="U" horiz-adv-x="678" 
d="M307 0c-143 0 -263 116 -263 264v546h97v-546c0 -92 74 -167 166 -167c93 0 167 75 167 167v546h97v-546c0 -148 -120 -264 -264 -264z" />
    <glyph glyph-name="V" unicode="V" horiz-adv-x="734" 
d="M659 810l-284 -810h-85l-282 810h103l223 -638l222 638h103z" />
    <glyph glyph-name="W" unicode="W" horiz-adv-x="1118" 
d="M908 810h101l-283 -810h-80l-138 504l-136 -504h-80l-283 810h100l216 -618l148 546h70l149 -546z" />
    <glyph glyph-name="X" unicode="X" horiz-adv-x="786" 
d="M716 810l-300 -405l301 -405h-119l-241 326l-241 -326h-118l300 405l-300 405h118l241 -325l241 325h118z" />
    <glyph glyph-name="Y" unicode="Y" horiz-adv-x="792" 
d="M725 810l-305 -412c-8 -10 -12 -39 -12 -73v-325h-96v325c0 35 -5 65 -12 74l-305 411h119l246 -331l245 331h120z" />
    <glyph glyph-name="Z" unicode="Z" horiz-adv-x="766" 
d="M674 738l-507 -641h488v-97h-632v72l508 641h-488v97h631v-72z" />
    <glyph glyph-name="bracketleft" unicode="[" horiz-adv-x="258" 
d="M214 -93h-166v943h166v-97h-69v-749h69v-97z" />
    <glyph glyph-name="backslash" unicode="\" horiz-adv-x="431" 
d="M279 0l-268 810h102l268 -810h-102z" />
    <glyph glyph-name="bracketright" unicode="]" horiz-adv-x="260" 
d="M22 -93v97h69v749h-69v97h166v-943h-166z" />
    <glyph glyph-name="underscore" unicode="_" horiz-adv-x="653" 
d="M55 1v97h526v-97h-526z" />
    <glyph glyph-name="a" unicode="a" 
d="M252 0c-119 0 -226 81 -226 188c0 108 108 188 226 188h65c28 0 64 15 64 45c0 46 -49 91 -119 91c-45 0 -84 -18 -134 -85l-78 58c48 80 137 124 211 124c116 0 216 -84 216 -188v-233c0 -107 -107 -188 -225 -188zM252 281c-72 0 -128 -45 -128 -92s56 -92 128 -92
c73 0 128 46 128 92v108s-8 -17 -128 -16z" />
    <glyph glyph-name="b" unicode="b" horiz-adv-x="590" 
d="M200 0h-153v810h97v-173c0 -21 14 -37 56 -37c165 0 300 -135 300 -299s-135 -301 -300 -301zM144 97l55 1c111 2 203 91 203 203c0 111 -92 202 -203 202c-48 0 -55 8 -55 8v-414z" />
    <glyph glyph-name="c" unicode="c" 
d="M291 0c-164 0 -262 158 -262 306c0 135 90 303 260 303c79 0 140 -32 211 -124l-78 -58c-50 67 -87 85 -131 85c-104 0 -161 -111 -161 -207c0 -90 54 -208 162 -208c45 0 100 30 136 85l78 -58c-62 -86 -139 -124 -215 -124z" />
    <glyph glyph-name="d" unicode="d" horiz-adv-x="584" 
d="M483 0h-153c-165 0 -300 137 -300 301s135 299 300 299c42 0 56 16 56 37v173h97v-810zM331 98l55 -1v414s-7 -8 -55 -8c-111 0 -203 -91 -203 -202c0 -112 92 -201 203 -203z" />
    <glyph glyph-name="e" unicode="e" horiz-adv-x="580" 
d="M293 0c-152 0 -260 142 -260 295c0 160 104 314 258 314c116 0 201 -67 201 -160c0 -101 -100 -169 -224 -169h-103c-17 0 -27 -10 -27 -28c0 -77 88 -153 153 -153c53 0 90 17 141 85l77 -58c-52 -70 -116 -126 -216 -126zM293 512c-72 0 -136 -59 -158 -149
c5 6 20 14 41 14h93c81 0 127 35 127 72c0 24 -24 63 -103 63z" />
    <glyph glyph-name="f" unicode="f" horiz-adv-x="374" 
d="M269 810h48v-97h-48c-51 0 -95 -34 -116 -82c-3 -7 -9 -21 -9 -31c9 12 26 11 27 11h123v-97h-118c-29 0 -33 -15 -33 -28v-486h-97v572c0 130 99 238 223 238z" />
    <glyph glyph-name="g" unicode="g" horiz-adv-x="584" 
d="M332 609h156v-614c0 -107 -101 -195 -215 -195c-63 0 -162 32 -211 124l78 58c31 -61 86 -85 131 -85c66 0 117 42 117 91c0 16 -13 24 -34 24h-21c-165 0 -300 134 -300 298c0 165 135 299 299 299zM343 107c31 0 47 -6 47 -6v415h-55c-112 0 -203 -91 -203 -203
c0 -111 91 -206 211 -206z" />
    <glyph glyph-name="h" unicode="h" horiz-adv-x="596" 
d="M272 601c124 0 223 -96 223 -236v-365h-97v365c0 79 -59 140 -127 140h-95c-25 0 -32 7 -32 7v-512h-97v810h97v-184c0 -15 9 -25 31 -25h97z" />
    <glyph glyph-name="i" unicode="i" horiz-adv-x="210" 
d="M46 0v609h97v-609h-97zM31 753c0 35 27 63 62 63s63 -28 63 -63s-28 -62 -63 -62s-62 27 -62 62z" />
    <glyph glyph-name="j" unicode="j" horiz-adv-x="367" 
d="M189 37v572h97v-572c0 -129 -98 -237 -224 -237h-48v97h48c68 0 127 61 127 140zM179 753c0 35 27 63 62 63s63 -28 63 -63s-28 -62 -63 -62s-62 27 -62 62z" />
    <glyph glyph-name="k" unicode="k" horiz-adv-x="606" 
d="M408 0l-206 271c-13 16 -27 19 -38 9l-19 -17v-263h-97v810h97v-424l250 223h145l-288 -252h1c7 -2 31 -18 50 -43l237 -314h-132z" />
    <glyph glyph-name="l" unicode="l" horiz-adv-x="213" 
d="M48 0v810h97v-810h-97z" />
    <glyph glyph-name="m" unicode="m" horiz-adv-x="976" 
d="M617 609c124 0 223 -110 223 -237v-372h-97v372c0 80 -59 141 -127 141s-127 -61 -127 -141v-372h-97v372c0 80 -59 141 -127 141s-127 -61 -127 -141v-372h-97v372c0 131 99 237 224 237c69 0 134 -33 176 -89c36 54 107 89 176 89z" />
    <glyph glyph-name="n" unicode="n" horiz-adv-x="590" 
d="M490 0h-97v372c0 79 -59 140 -127 140s-127 -61 -127 -140v-372h-97v372c0 129 99 237 224 237c123 0 224 -107 224 -237v-372z" />
    <glyph glyph-name="o" unicode="o" horiz-adv-x="665" 
d="M299 0c-162 0 -267 151 -267 304c0 165 117 305 267 305c163 0 267 -152 267 -305c0 -164 -119 -304 -267 -304zM299 514c-90 0 -170 -91 -170 -209c0 -119 80 -208 170 -208s170 89 170 208c0 118 -80 209 -170 209z" />
    <glyph glyph-name="p" unicode="p" horiz-adv-x="589" 
d="M47 609h153c165 0 300 -137 300 -301s-135 -299 -300 -299c-42 0 -56 -16 -56 -37v-172h-97v809zM199 511l-55 1v-414s7 8 55 8c111 0 203 91 203 202c0 112 -92 201 -203 203z" />
    <glyph glyph-name="q" unicode="q" horiz-adv-x="585" 
d="M332 609h153v-809h-97v172c0 21 -14 37 -56 37c-165 0 -300 135 -300 299s135 301 300 301zM388 512l-55 -1c-111 -2 -203 -91 -203 -203c0 -111 92 -202 203 -202c48 0 55 -8 55 -8v414z" />
    <glyph glyph-name="r" unicode="r" horiz-adv-x="346" 
d="M139 0h-97v372c0 129 99 237 224 237h24v-97h-24c-68 0 -127 -61 -127 -140v-372z" />
    <glyph glyph-name="s" unicode="s" horiz-adv-x="546" 
d="M251 0c-105 0 -174 30 -235 124l77 59c37 -62 81 -85 157 -85c81 0 119 36 119 88c0 23 -6 34 -28 47c-80 47 -302 39 -302 207c0 102 81 169 195 169c69 0 141 -25 216 -124l-77 -59c-56 75 -100 85 -138 85c-60 0 -98 -28 -98 -72c0 -49 56 -64 130 -82
c40 -10 83 -18 125 -44c48 -30 75 -73 75 -129c0 -109 -91 -184 -216 -184z" />
    <glyph glyph-name="t" unicode="t" horiz-adv-x="355" 
d="M141 239c-1 -80 58 -142 127 -142h24v-97h-24c-61 0 -119 25 -161 71c-42 44 -64 104 -64 167v572h97v-217s6 8 25 8h127v-97h-119c-16 0 -32 -9 -32 -24v-241z" />
    <glyph glyph-name="u" unicode="u" horiz-adv-x="585" 
d="M265 0c-125 0 -224 108 -224 238v371h97v-371c0 -80 59 -141 127 -141s127 61 127 141v371h97v-371c0 -131 -100 -238 -224 -238z" />
    <glyph glyph-name="v" unicode="v" horiz-adv-x="608" 
d="M314 0h-80l-227 609h104l164 -437l162 437h104z" />
    <glyph glyph-name="w" unicode="w" horiz-adv-x="899" 
d="M611 0h-80l-108 347l-108 -347h-80l-227 609h104l159 -427l111 361h83l111 -361l159 427h104z" />
    <glyph glyph-name="x" unicode="x" horiz-adv-x="614" 
d="M558 609l-221 -303l221 -306h-119l-162 224l-162 -224h-117l220 306l-220 303h117l162 -223l162 223h119z" />
    <glyph glyph-name="y" unicode="y" horiz-adv-x="612" 
d="M444 609h103l-245 -653c-34 -91 -113 -156 -203 -156h-48v95h48c57 0 119 62 119 125c0 29 -13 62 -21 85l-188 504h102l166 -448z" />
    <glyph glyph-name="z" unicode="z" horiz-adv-x="598" 
d="M499 0h-475v72l349 440h-330v97h474v-72l-349 -440h331v-97z" />
    <glyph glyph-name="braceleft" unicode="{" horiz-adv-x="427" 
d="M312 -76c-59 0 -117 21 -143 84c-19 45 -19 100 -20 154c-3 160 -23 171 -73 174v104c51 3 71 15 74 174c1 54 1 109 20 154c24 57 73 87 140 86l52 -1v-105l-54 1c-49 1 -55 -37 -55 -85c0 -14 1 -28 1 -43c0 -119 -15 -188 -53 -232c40 -46 52 -108 55 -224
c0 -17 -1 -35 -1 -51c0 -48 6 -86 55 -85l54 1v-106h-52z" />
    <glyph glyph-name="bar" unicode="|" horiz-adv-x="221" 
d="M48 -81v941h97v-941h-97z" />
    <glyph glyph-name="braceright" unicode="}" horiz-adv-x="404" 
d="M77 -76h-52v106l54 -1c49 -1 54 37 54 85v51c2 116 14 178 55 224c-39 45 -53 114 -53 233v39c0 49 -5 89 -54 88l-54 -1v105l52 1c66 1 116 -29 140 -86c19 -45 19 -100 20 -154c3 -159 23 -171 74 -174v-104c-50 -3 -71 -14 -73 -174c-1 -54 -1 -109 -20 -154
c-26 -63 -84 -84 -143 -84z" />
    <glyph glyph-name="exclamdown" unicode="&#xa1;" horiz-adv-x="254" 
d="M41 0l30 545h57l30 -545h-117zM100 664c-41 0 -70 33 -70 73c0 39 28 73 69 73c43 0 70 -34 70 -73c0 -40 -28 -73 -69 -73z" />
    <glyph glyph-name="cent" unicode="&#xa2;" horiz-adv-x="542" 
d="M411 183l78 -58c-60 -80 -109 -108 -160 -118v-56h-97v55c-134 30 -214 161 -214 301c0 143 88 274 213 299v56h97v-57c51 -10 100 -39 159 -118l-78 -58c-50 67 -89 84 -132 84c-88 0 -162 -91 -162 -207c0 -119 75 -208 162 -208c44 0 81 18 134 85z" />
    <glyph glyph-name="sterling" unicode="&#xa3;" horiz-adv-x="645" 
d="M564 0h-541v96c87 0 94 147 94 234h-75v97h76c0 205 43 376 237 376c82 0 153 -68 194 -168l10 -22l-90 -37l-9 22c-30 73 -74 108 -115 108c-125 0 -131 -179 -131 -277c0 -1 176 -1 216 -1v-97h-217c-4 -106 -9 -165 -35 -234h386v-97z" />
    <glyph glyph-name="currency" unicode="&#xa4;" horiz-adv-x="630" 
d="M532 312c0 -41 -11 -82 -30 -117l74 -74l-69 -69l-67 67c-38 -30 -83 -45 -131 -45c-47 0 -93 16 -130 45l-66 -67l-69 69l73 74c-18 36 -28 76 -28 117c0 43 11 85 29 120l-75 75l69 69l68 -69c39 30 83 46 130 46c48 0 93 -17 129 -46l69 69l69 -69l-75 -74
c20 -36 30 -77 30 -121zM310 171c66 0 125 61 125 141c0 81 -59 142 -125 142s-124 -61 -124 -142c0 -80 58 -141 124 -141z" />
    <glyph glyph-name="yen" unicode="&#xa5;" horiz-adv-x="745" 
d="M404 404h144v-97h-162v-38h162v-96h-162v-173h-96v173h-164v96h164v38h-164v97h148l-266 357l77 58l254 -341l253 341l77 -58z" />
    <glyph glyph-name="section" unicode="&#xa7;" horiz-adv-x="534" 
d="M462 404c0 -61 -26 -111 -72 -145c16 -24 24 -52 24 -83c0 -105 -78 -176 -191 -176c-100 0 -164 40 -210 122l79 56c46 -66 82 -81 140 -81c48 0 85 31 85 80c0 68 -152 74 -215 116c-43 28 -66 72 -66 124c0 58 25 108 76 136c-21 25 -31 56 -31 90
c0 102 72 161 174 161c76 0 124 -23 195 -115l-79 -55c-44 64 -82 74 -111 74c-43 0 -80 -19 -80 -65c0 -36 23 -51 106 -75c36 -10 76 -20 110 -42c42 -28 66 -71 66 -122zM296 325l2 -1c47 8 70 34 70 79s-30 46 -125 78h-17c-68 0 -91 -20 -91 -65c0 -53 37 -50 161 -91z
" />
    <glyph glyph-name="guillemotleft" unicode="&#xab;" horiz-adv-x="470" 
d="M222 92l-230 227l229 227v-137l-91 -90l91 -89zM406 93l-229 226l229 227v-137l-91 -90l92 -90z" />
    <glyph glyph-name="guillemotright" unicode="&#xbb;" horiz-adv-x="474" 
d="M226 92l1 138l91 89l-91 90v137l229 -227zM39 93l-2 135l92 90l-91 90v137l230 -227z" />
    <glyph glyph-name="questiondown" unicode="&#xbf;" horiz-adv-x="549" 
d="M254 -5c-123 0 -231 95 -231 232c0 130 83 221 201 254v82h96v-153c-49 -8 -196 -24 -196 -184c0 -74 56 -139 130 -139c75 0 139 53 161 111l78 -55c-49 -94 -129 -148 -239 -148zM337 747c0 -40 -31 -72 -71 -72s-72 32 -72 72s32 71 72 71s71 -31 71 -71z" />
    <glyph glyph-name="Oslash" unicode="&#xd8;" horiz-adv-x="815" 
d="M729 810l-103 -144c51 -74 78 -165 78 -261c0 -200 -131 -405 -332 -405c-67 0 -131 25 -189 72l-54 -72h-121l108 145c-50 73 -77 164 -77 260c0 202 130 405 333 405c68 0 130 -25 186 -69l50 69h121zM136 404c0 -65 17 -127 43 -175l322 433c-38 33 -82 50 -129 50
c-126 0 -236 -133 -236 -308zM608 405c0 67 -15 129 -42 179l-324 -434c39 -34 83 -52 130 -52c126 0 236 133 236 307z" />
    <glyph glyph-name="germandbls" unicode="&#xdf;" horiz-adv-x="634" 
d="M262 473h33c63 2 114 56 114 121s-54 119 -138 119c-76 0 -129 -49 -129 -130c0 -188 0 -584 -1 -583h-95v603c2 127 95 207 225 207c132 0 236 -97 236 -216c0 -61 -26 -117 -64 -155c71 -49 112 -126 112 -202c0 -126 -103 -237 -236 -237c-67 0 -123 24 -167 63l67 72
c28 -24 62 -38 98 -38c76 0 139 60 139 139c0 76 -63 139 -140 139h-54v98z" />
    <glyph glyph-name="divide" unicode="&#xf7;" horiz-adv-x="648" 
d="M310 152c40 0 68 -33 68 -72c0 -38 -27 -71 -69 -71c-41 0 -68 33 -68 71c0 40 29 72 69 72zM55 254v96h516v-96h-516zM309 450c-41 0 -68 32 -68 70c0 40 29 72 69 72s68 -32 68 -71c0 -38 -27 -71 -69 -71z" />
    <glyph glyph-name="oslash" unicode="&#xf8;" horiz-adv-x="662" 
d="M299 0c-52 0 -97 15 -136 41l-31 -42h-121l82 110c-39 55 -61 125 -61 195c0 165 117 305 267 305c52 0 98 -16 136 -42l32 42h121l-83 -111c39 -55 61 -124 61 -194c0 -164 -119 -304 -267 -304zM299 514c-90 0 -170 -91 -170 -209c0 -42 10 -80 27 -112l221 296
c-24 16 -50 25 -78 25zM469 305c0 41 -10 78 -26 110l-221 -296c24 -14 50 -22 77 -22c90 0 170 89 170 208z" />
    <glyph glyph-name="OE" unicode="&#x152;" horiz-adv-x="1047" 
d="M953 0h-503v15c-27 -9 -57 -15 -85 -15c-199 0 -333 203 -333 405c0 216 146 405 333 405c29 0 60 -5 85 -13v13h502v-97h-405v-248s12 8 48 8h357v-97h-364c-28 0 -40 -15 -40 -23v-256h405v-97zM365 96c28 0 58 9 85 22v570c-28 14 -56 21 -86 21
c-124 0 -235 -132 -235 -305c0 -174 111 -308 236 -308z" />
    <glyph glyph-name="perthousand" unicode="&#x2030;" horiz-adv-x="1089" 
d="M546 810h110l-468 -810h-110zM180 504c-82 0 -147 70 -147 154c0 83 65 153 147 153c83 0 148 -70 148 -153c0 -84 -65 -154 -148 -154zM180 717c-27 0 -52 -25 -52 -59s25 -60 52 -60s53 26 53 60s-26 59 -53 59zM555 307c82 0 147 -69 147 -153
c0 -83 -65 -153 -147 -153c-83 0 -148 70 -148 153c0 84 65 153 148 153zM555 95c27 0 52 25 52 59s-25 59 -52 59s-53 -25 -53 -59s26 -59 53 -59zM894 301c83 0 148 -70 148 -154c0 -83 -65 -153 -148 -153c-82 0 -147 70 -147 153c0 84 65 154 147 154zM894 88
c27 0 53 25 53 59s-26 60 -53 60s-52 -26 -52 -60s25 -59 52 -59z" />
    <glyph glyph-name="Euro" unicode="&#x20ac;" horiz-adv-x="818" 
d="M42 419v97h75c39 166 169 294 321 294c107 0 204 -62 267 -162l25 -42l-83 -51l-25 42c-45 76 -116 116 -185 116c-97 0 -185 -80 -220 -197h252v-97h-267c0 -25 0 -37 1 -47h266v-97h-245c39 -107 122 -177 213 -177c69 0 140 40 185 116l25 42l83 -51l-25 -42
c-61 -103 -163 -163 -267 -163c-154 0 -273 122 -316 275h-80v97h64c-1 10 -1 21 -1 47h-63z" />
    <glyph glyph-name="mu" unicode="&#xb5;" horiz-adv-x="599" 
d="M400 810h96v-365c0 -63 -23 -122 -64 -167c-74 -80 -158 -70 -280 -70c-7 0 -7 -8 -7 -17v-191h-97v810h97v-505h128c67 0 127 61 127 140v365z" />
    <glyph glyph-name="space" unicode=" " horiz-adv-x="297" 
 />
    <glyph glyph-name="ring" unicode="&#x2da;" horiz-adv-x="278" 
d="M143 578c-66 0 -118 55 -118 121c0 67 52 123 118 123c65 0 116 -56 116 -123c0 -66 -51 -121 -116 -121zM143 747c-23 0 -42 -20 -42 -48c0 -26 19 -46 42 -46c21 0 41 20 41 46c0 28 -20 48 -41 48z" />
    <glyph glyph-name="fraction" unicode="&#x2044;" horiz-adv-x="568" 
d="M166 0h-102l268 810h103z" />
    <glyph glyph-name="oe" unicode="&#x153;" horiz-adv-x="982" 
d="M720 0c-93 0 -169 52 -214 128c-48 -77 -128 -128 -217 -128c-162 0 -267 151 -267 304c0 165 117 305 267 305c97 0 173 -57 220 -130c45 76 118 130 209 130c116 0 201 -67 201 -160c0 -101 -100 -169 -224 -169h-103c-17 0 -27 -10 -27 -28c0 -77 88 -153 153 -153
c53 0 90 17 141 85l77 -58c-52 -70 -116 -126 -216 -126zM289 514c-90 0 -170 -91 -170 -209c0 -119 80 -208 170 -208s170 89 170 208c0 118 -80 209 -170 209zM720 512c-72 0 -136 -59 -158 -149c5 6 20 14 41 14h93c81 0 127 35 127 72c0 24 -24 63 -103 63z" />
    <glyph glyph-name="Aring" unicode="&#xc5;" horiz-adv-x="728" 
d="M110 0h-100l282 810h80l282 -809h-102l-91 258s-18 -9 -54 -9l-165 1c-41 0 -53 -22 -54 -26zM332 632l-105 -296s9 6 29 6h132c32 0 40 11 40 11zM333 844c-66 0 -118 55 -118 121c0 67 52 123 118 123c65 0 116 -56 116 -123c0 -66 -51 -121 -116 -121zM333 1013
c-23 0 -42 -20 -42 -48c0 -26 19 -46 42 -46c21 0 41 20 41 46c0 28 -20 48 -41 48z" />
    <glyph glyph-name="dieresis" unicode="&#xa8;" horiz-adv-x="369" 
d="M117 615c-24 0 -47 21 -47 48v14c0 27 21 49 48 49s49 -22 49 -49v-14c0 -25 -22 -48 -50 -48zM263 615c-25 0 -49 18 -49 48v13c0 27 22 49 49 49s48 -22 48 -49v-13c0 -25 -21 -48 -48 -48z" />
    <glyph glyph-name="Adieresis" unicode="&#xc4;" horiz-adv-x="728" 
d="M110 0h-100l282 810h80l282 -809h-102l-91 258s-18 -9 -54 -9l-165 1c-41 0 -53 -22 -54 -26zM332 632l-105 -296s9 6 29 6h132c32 0 40 11 40 11zM259 868c-24 0 -47 21 -47 48v14c0 27 21 49 48 49s49 -22 49 -49v-14c0 -25 -22 -48 -50 -48zM405 868
c-25 0 -49 18 -49 48v13c0 27 22 49 49 49s48 -22 48 -49v-13c0 -25 -21 -48 -48 -48z" />
    <glyph glyph-name="circumflex" unicode="&#x2c6;" horiz-adv-x="415" 
d="M266 670l-52 54l-53 -54h-109l142 142h40l142 -142h-110z" />
    <glyph glyph-name="Acircumflex" unicode="&#xc2;" horiz-adv-x="728" 
d="M110 0h-100l282 810h80l282 -809h-102l-91 258s-18 -9 -54 -9l-165 1c-41 0 -53 -22 -54 -26zM332 632l-105 -296s9 6 29 6h132c32 0 40 11 40 11zM384 869l-52 54l-53 -54h-109l142 142h40l142 -142h-110z" />
    <glyph glyph-name="grave" unicode="`" horiz-adv-x="256" 
d="M146 623l-133 147h127l79 -147h-73z" />
    <glyph glyph-name="Agrave" unicode="&#xc0;" horiz-adv-x="728" 
d="M110 0h-100l282 810h80l282 -809h-102l-91 258s-18 -9 -54 -9l-165 1c-41 0 -53 -22 -54 -26zM332 632l-105 -296s9 6 29 6h132c32 0 40 11 40 11zM314 844l-133 147h127l79 -147h-73z" />
    <glyph glyph-name="acute" unicode="&#xb4;" horiz-adv-x="253" 
d="M219 770l-134 -147h-72l79 147h127z" />
    <glyph glyph-name="Aacute" unicode="&#xc1;" horiz-adv-x="728" 
d="M110 0h-100l282 810h80l282 -809h-102l-91 258s-18 -9 -54 -9l-165 1c-41 0 -53 -22 -54 -26zM332 632l-105 -296s9 6 29 6h132c32 0 40 11 40 11zM482 995l-134 -147h-72l79 147h127z" />
    <glyph glyph-name="tilde" unicode="&#x2dc;" horiz-adv-x="414" 
d="M280 744c-50 0 -80 36 -122 36c-18 0 -40 -6 -66 -28l-2 72c4 16 26 44 67 44c50 0 80 -37 121 -37c18 0 40 6 67 29l2 -72c-4 -17 -26 -44 -67 -44z" />
    <glyph glyph-name="Atilde" unicode="&#xc3;" horiz-adv-x="728" 
d="M110 0h-100l282 810h80l282 -809h-102l-91 258s-18 -9 -54 -9l-165 1c-41 0 -53 -22 -54 -26zM332 632l-105 -296s9 6 29 6h132c32 0 40 11 40 11zM393 856c-50 0 -80 36 -122 36c-18 0 -40 -6 -66 -28l-2 72c4 16 26 44 67 44c50 0 80 -37 121 -37c18 0 40 6 67 29
l2 -72c-4 -17 -26 -44 -67 -44z" />
    <glyph glyph-name="AE" unicode="&#xc6;" horiz-adv-x="1004" 
d="M915 0h-503v281h-159c-41 0 -53 -22 -54 -26l-89 -255h-100l282 810h622v-97h-405v-248s12 8 48 8h357v-97h-364c-28 0 -40 -15 -40 -23v-256h405v-97zM240 371c0 0 9 6 29 6h143v336h-54z" />
    <glyph glyph-name="Ccedilla" unicode="&#xc7;" horiz-adv-x="744" 
d="M404 -194c21 0 42 20 42 47s-21 47 -42 47h-78v103c-180 25 -292 214 -292 401c0 213 141 406 334 406c106 0 204 -62 266 -162l26 -42l-84 -51l-25 42c-45 76 -116 116 -184 116c-125 0 -236 -133 -236 -308c0 -174 111 -307 236 -307c68 0 139 40 184 116l25 42l84 -51
l-26 -42c-55 -90 -140 -148 -230 -161v-27c65 0 116 -56 116 -122s-51 -122 -116 -122c-66 0 -121 52 -121 117h74c0 -22 21 -42 47 -42z" />
    <glyph glyph-name="cedilla" unicode="&#xb8;" horiz-adv-x="320" 
d="M163 -194c21 0 42 20 42 47s-21 47 -42 47h-78v154h78v-79c65 0 116 -56 116 -122s-51 -122 -116 -122c-66 0 -121 52 -121 117h74c0 -22 21 -42 47 -42z" />
    <glyph glyph-name="Egrave" unicode="&#xc8;" horiz-adv-x="646" 
d="M549 0h-502v810h501v-97h-404v-248s11 8 47 8h357v-97h-364c-28 0 -39 -15 -39 -23v-256h404v-97zM296 850l-133 147h127l79 -147h-73z" />
    <glyph glyph-name="Eacute" unicode="&#xc9;" horiz-adv-x="646" 
d="M549 0h-502v810h501v-97h-404v-248s11 8 47 8h357v-97h-364c-28 0 -39 -15 -39 -23v-256h404v-97zM433 999l-134 -147h-72l79 147h127z" />
    <glyph glyph-name="Ecircumflex" unicode="&#xca;" horiz-adv-x="646" 
d="M549 0h-502v810h501v-97h-404v-248s11 8 47 8h357v-97h-364c-28 0 -39 -15 -39 -23v-256h404v-97zM367 882l-52 54l-53 -54h-109l142 142h40l142 -142h-110z" />
    <glyph glyph-name="Edieresis" unicode="&#xcb;" horiz-adv-x="646" 
d="M549 0h-502v810h501v-97h-404v-248s11 8 47 8h357v-97h-364c-28 0 -39 -15 -39 -23v-256h404v-97zM232 869c-24 0 -47 21 -47 48v14c0 27 21 49 48 49s49 -22 49 -49v-14c0 -25 -22 -48 -50 -48zM378 869c-25 0 -49 18 -49 48v13c0 27 22 49 49 49s48 -22 48 -49v-13
c0 -25 -21 -48 -48 -48z" />
    <glyph glyph-name="ograve" unicode="&#xf2;" horiz-adv-x="665" 
d="M299 0c-162 0 -267 151 -267 304c0 165 117 305 267 305c163 0 267 -152 267 -305c0 -164 -119 -304 -267 -304zM299 514c-90 0 -170 -91 -170 -209c0 -119 80 -208 170 -208s170 89 170 208c0 118 -80 209 -170 209zM291 667l-133 147h127l79 -147h-73z" />
    <glyph glyph-name="oacute" unicode="&#xf3;" horiz-adv-x="665" 
d="M299 0c-162 0 -267 151 -267 304c0 165 117 305 267 305c163 0 267 -152 267 -305c0 -164 -119 -304 -267 -304zM299 514c-90 0 -170 -91 -170 -209c0 -119 80 -208 170 -208s170 89 170 208c0 118 -80 209 -170 209zM450 818l-134 -147h-72l79 147h127z" />
    <glyph glyph-name="ocircumflex" unicode="&#xf4;" horiz-adv-x="665" 
d="M299 0c-162 0 -267 151 -267 304c0 165 117 305 267 305c163 0 267 -152 267 -305c0 -164 -119 -304 -267 -304zM299 514c-90 0 -170 -91 -170 -209c0 -119 80 -208 170 -208s170 89 170 208c0 118 -80 209 -170 209zM355 694l-52 54l-53 -54h-109l142 142h40l142 -142
h-110z" />
    <glyph glyph-name="otilde" unicode="&#xf5;" horiz-adv-x="665" 
d="M299 0c-162 0 -267 151 -267 304c0 165 117 305 267 305c163 0 267 -152 267 -305c0 -164 -119 -304 -267 -304zM299 514c-90 0 -170 -91 -170 -209c0 -119 80 -208 170 -208s170 89 170 208c0 118 -80 209 -170 209zM361 685c-50 0 -80 36 -122 36c-18 0 -40 -6 -66 -28
l-2 72c4 16 26 44 67 44c50 0 80 -37 121 -37c18 0 40 6 67 29l2 -72c-4 -17 -26 -44 -67 -44z" />
    <glyph glyph-name="odieresis" unicode="&#xf6;" horiz-adv-x="665" 
d="M299 0c-162 0 -267 151 -267 304c0 165 117 305 267 305c163 0 267 -152 267 -305c0 -164 -119 -304 -267 -304zM299 514c-90 0 -170 -91 -170 -209c0 -119 80 -208 170 -208s170 89 170 208c0 118 -80 209 -170 209zM227 681c-24 0 -47 21 -47 48v14c0 27 21 49 48 49
s49 -22 49 -49v-14c0 -25 -22 -48 -50 -48zM373 681c-25 0 -49 18 -49 48v13c0 27 22 49 49 49s48 -22 48 -49v-13c0 -25 -21 -48 -48 -48z" />
    <glyph glyph-name="Igrave" unicode="&#xcc;" horiz-adv-x="213" 
d="M48 0v810h97v-810h-97zM84 863l-133 147h127l79 -147h-73z" />
    <glyph glyph-name="Iacute" unicode="&#xcd;" horiz-adv-x="213" 
d="M48 0v810h97v-810h-97zM244 1007l-134 -147h-72l79 147h127z" />
    <glyph glyph-name="Icircumflex" unicode="&#xce;" horiz-adv-x="213" 
d="M48 0v810h97v-810h-97zM150 886l-52 54l-53 -54h-109l142 142h40l142 -142h-110z" />
    <glyph glyph-name="Idieresis" unicode="&#xcf;" horiz-adv-x="213" 
d="M48 0v810h97v-810h-97zM24 890c-24 0 -47 21 -47 48v14c0 27 21 49 48 49s49 -22 49 -49v-14c0 -25 -22 -48 -50 -48zM170 890c-25 0 -49 18 -49 48v13c0 27 22 49 49 49s48 -22 48 -49v-13c0 -25 -21 -48 -48 -48z" />
    <glyph glyph-name="Ntilde" unicode="&#xd1;" horiz-adv-x="695" 
d="M583 0h-114l-324 595v-595h-97v810h90l348 -640v640h97v-810zM367 845c-50 0 -80 36 -122 36c-18 0 -40 -6 -66 -28l-2 72c4 16 26 44 67 44c50 0 80 -37 121 -37c18 0 40 6 67 29l2 -72c-4 -17 -26 -44 -67 -44z" />
    <glyph glyph-name="paragraph" unicode="&#xb6;" horiz-adv-x="760" 
d="M563 0v713h-47v-713h-97v354c0 4 -5 22 -38 22h-106c-120 0 -217 98 -217 218c0 118 96 216 216 216h386v-810h-97z" />
    <glyph glyph-name="Ograve" unicode="&#xd2;" horiz-adv-x="809" 
d="M367 -1c-209 0 -333 214 -333 405c0 202 131 406 333 406c193 0 332 -197 332 -406c0 -179 -115 -405 -332 -405zM367 711c-125 0 -236 -133 -236 -307c0 -175 111 -308 236 -308s235 133 235 308c0 174 -110 307 -235 307zM359 847l-133 147h127l79 -147h-73z" />
    <glyph glyph-name="Oacute" unicode="&#xd3;" horiz-adv-x="809" 
d="M367 -1c-209 0 -333 214 -333 405c0 202 131 406 333 406c193 0 332 -197 332 -406c0 -179 -115 -405 -332 -405zM367 711c-125 0 -236 -133 -236 -307c0 -175 111 -308 236 -308s235 133 235 308c0 174 -110 307 -235 307zM504 986l-134 -147h-72l79 147h127z" />
    <glyph glyph-name="Ocircumflex" unicode="&#xd4;" horiz-adv-x="809" 
d="M367 -1c-209 0 -333 214 -333 405c0 202 131 406 333 406c193 0 332 -197 332 -406c0 -179 -115 -405 -332 -405zM367 711c-125 0 -236 -133 -236 -307c0 -175 111 -308 236 -308s235 133 235 308c0 174 -110 307 -235 307zM427 878l-52 54l-53 -54h-109l142 142h40
l142 -142h-110z" />
    <glyph glyph-name="Otilde" unicode="&#xd5;" horiz-adv-x="809" 
d="M367 -1c-209 0 -333 214 -333 405c0 202 131 406 333 406c193 0 332 -197 332 -406c0 -179 -115 -405 -332 -405zM367 711c-125 0 -236 -133 -236 -307c0 -175 111 -308 236 -308s235 133 235 308c0 174 -110 307 -235 307zM431 851c-50 0 -80 36 -122 36
c-18 0 -40 -6 -66 -28l-2 72c4 16 26 44 67 44c50 0 80 -37 121 -37c18 0 40 6 67 29l2 -72c-4 -17 -26 -44 -67 -44z" />
    <glyph glyph-name="Odieresis" unicode="&#xd6;" horiz-adv-x="809" 
d="M367 -1c-209 0 -333 214 -333 405c0 202 131 406 333 406c193 0 332 -197 332 -406c0 -179 -115 -405 -332 -405zM367 711c-125 0 -236 -133 -236 -307c0 -175 111 -308 236 -308s235 133 235 308c0 174 -110 307 -235 307zM291 857c-24 0 -47 21 -47 48v14
c0 27 21 49 48 49s49 -22 49 -49v-14c0 -25 -22 -48 -50 -48zM437 857c-25 0 -49 18 -49 48v13c0 27 22 49 49 49s48 -22 48 -49v-13c0 -25 -21 -48 -48 -48z" />
    <glyph glyph-name="Ugrave" unicode="&#xd9;" horiz-adv-x="678" 
d="M307 0c-143 0 -263 116 -263 264v546h97v-546c0 -92 74 -167 166 -167c93 0 167 75 167 167v546h97v-546c0 -148 -120 -264 -264 -264zM312 822l-133 147h127l79 -147h-73z" />
    <glyph glyph-name="Uacute" unicode="&#xda;" horiz-adv-x="678" 
d="M307 0c-143 0 -263 116 -263 264v546h97v-546c0 -92 74 -167 166 -167c93 0 167 75 167 167v546h97v-546c0 -148 -120 -264 -264 -264zM442 969l-134 -147h-72l79 147h127z" />
    <glyph glyph-name="Ucircumflex" unicode="&#xdb;" horiz-adv-x="678" 
d="M307 0c-143 0 -263 116 -263 264v546h97v-546c0 -92 74 -167 166 -167c93 0 167 75 167 167v546h97v-546c0 -148 -120 -264 -264 -264zM360 876l-52 54l-53 -54h-109l142 142h40l142 -142h-110z" />
    <glyph glyph-name="Udieresis" unicode="&#xdc;" horiz-adv-x="678" 
d="M307 0c-143 0 -263 116 -263 264v546h97v-546c0 -92 74 -167 166 -167c93 0 167 75 167 167v546h97v-546c0 -148 -120 -264 -264 -264zM228 852c-24 0 -47 21 -47 48v14c0 27 21 49 48 49s49 -22 49 -49v-14c0 -25 -22 -48 -50 -48zM374 852c-25 0 -49 18 -49 48v13
c0 27 22 49 49 49s48 -22 48 -49v-13c0 -25 -21 -48 -48 -48z" />
    <glyph glyph-name="Yacute" unicode="&#xdd;" horiz-adv-x="792" 
d="M725 810l-305 -412c-8 -10 -12 -39 -12 -73v-325h-96v325c0 35 -5 65 -12 74l-305 411h119l246 -331l245 331h120zM493 969l-134 -147h-72l79 147h127z" />
    <glyph glyph-name="Ydieresis" unicode="&#x178;" horiz-adv-x="792" 
d="M725 810l-305 -412c-8 -10 -12 -39 -12 -73v-325h-96v325c0 35 -5 65 -12 74l-305 411h119l246 -331l245 331h120zM287 813c-24 0 -47 21 -47 48v14c0 27 21 49 48 49s49 -22 49 -49v-14c0 -25 -22 -48 -50 -48zM433 813c-25 0 -49 18 -49 48v13c0 27 22 49 49 49
s48 -22 48 -49v-13c0 -25 -21 -48 -48 -48z" />
    <glyph glyph-name="agrave" unicode="&#xe0;" 
d="M252 0c-119 0 -226 81 -226 188c0 108 108 188 226 188h65c28 0 64 15 64 45c0 46 -49 91 -119 91c-45 0 -84 -18 -134 -85l-78 58c48 80 137 124 211 124c116 0 216 -84 216 -188v-233c0 -107 -107 -188 -225 -188zM252 281c-72 0 -128 -45 -128 -92s56 -92 128 -92
c73 0 128 46 128 92v108s-8 -17 -128 -16zM259 663l-133 147h127l79 -147h-73z" />
    <glyph glyph-name="aacute" unicode="&#xe1;" 
d="M252 0c-119 0 -226 81 -226 188c0 108 108 188 226 188h65c28 0 64 15 64 45c0 46 -49 91 -119 91c-45 0 -84 -18 -134 -85l-78 58c48 80 137 124 211 124c116 0 216 -84 216 -188v-233c0 -107 -107 -188 -225 -188zM252 281c-72 0 -128 -45 -128 -92s56 -92 128 -92
c73 0 128 46 128 92v108s-8 -17 -128 -16zM404 810l-134 -147h-72l79 147h127z" />
    <glyph glyph-name="acircumflex" unicode="&#xe2;" 
d="M252 0c-119 0 -226 81 -226 188c0 108 108 188 226 188h65c28 0 64 15 64 45c0 46 -49 91 -119 91c-45 0 -84 -18 -134 -85l-78 58c48 80 137 124 211 124c116 0 216 -84 216 -188v-233c0 -107 -107 -188 -225 -188zM252 281c-72 0 -128 -45 -128 -92s56 -92 128 -92
c73 0 128 46 128 92v108s-8 -17 -128 -16zM318 693l-52 54l-53 -54h-109l142 142h40l142 -142h-110z" />
    <glyph glyph-name="atilde" unicode="&#xe3;" 
d="M252 0c-119 0 -226 81 -226 188c0 108 108 188 226 188h65c28 0 64 15 64 45c0 46 -49 91 -119 91c-45 0 -84 -18 -134 -85l-78 58c48 80 137 124 211 124c116 0 216 -84 216 -188v-233c0 -107 -107 -188 -225 -188zM252 281c-72 0 -128 -45 -128 -92s56 -92 128 -92
c73 0 128 46 128 92v108s-8 -17 -128 -16zM329 685c-50 0 -80 36 -122 36c-18 0 -40 -6 -66 -28l-2 72c4 16 26 44 67 44c50 0 80 -37 121 -37c18 0 40 6 67 29l2 -72c-4 -17 -26 -44 -67 -44z" />
    <glyph glyph-name="adieresis" unicode="&#xe4;" 
d="M252 0c-119 0 -226 81 -226 188c0 108 108 188 226 188h65c28 0 64 15 64 45c0 46 -49 91 -119 91c-45 0 -84 -18 -134 -85l-78 58c48 80 137 124 211 124c116 0 216 -84 216 -188v-233c0 -107 -107 -188 -225 -188zM252 281c-72 0 -128 -45 -128 -92s56 -92 128 -92
c73 0 128 46 128 92v108s-8 -17 -128 -16zM182 692c-24 0 -47 21 -47 48v14c0 27 21 49 48 49s49 -22 49 -49v-14c0 -25 -22 -48 -50 -48zM328 692c-25 0 -49 18 -49 48v13c0 27 22 49 49 49s48 -22 48 -49v-13c0 -25 -21 -48 -48 -48z" />
    <glyph glyph-name="aring" unicode="&#xe5;" 
d="M252 0c-119 0 -226 81 -226 188c0 108 108 188 226 188h65c28 0 64 15 64 45c0 46 -49 91 -119 91c-45 0 -84 -18 -134 -85l-78 58c48 80 137 124 211 124c116 0 216 -84 216 -188v-233c0 -107 -107 -188 -225 -188zM252 281c-72 0 -128 -45 -128 -92s56 -92 128 -92
c73 0 128 46 128 92v108s-8 -17 -128 -16zM261 649c-66 0 -118 55 -118 121c0 67 52 123 118 123c65 0 116 -56 116 -123c0 -66 -51 -121 -116 -121zM261 818c-23 0 -42 -20 -42 -48c0 -26 19 -46 42 -46c21 0 41 20 41 46c0 28 -20 48 -41 48z" />
    <glyph glyph-name="ae" unicode="&#xe6;" horiz-adv-x="894" 
d="M639 0c-79 0 -146 38 -192 95c-40 -58 -115 -95 -195 -95c-119 0 -226 81 -226 188c0 108 108 188 226 188h65c28 0 64 15 64 45c0 46 -49 91 -119 91c-45 0 -84 -18 -134 -85l-78 58c48 80 137 124 211 124c79 0 151 -40 189 -98c45 59 110 98 187 98
c116 0 201 -67 201 -160c0 -101 -100 -169 -224 -169h-103c-17 0 -27 -10 -27 -28c0 -77 88 -153 153 -153c53 0 90 17 141 85l77 -58c-52 -70 -116 -126 -216 -126zM252 281c-72 0 -128 -45 -128 -92s56 -92 128 -92c73 0 128 46 128 92c0 90 -1 98 -1 106
c-3 -2 -19 -15 -127 -14zM639 512c-72 0 -136 -59 -158 -149c5 6 20 14 41 14h93c81 0 127 35 127 72c0 24 -24 63 -103 63z" />
    <glyph glyph-name="ccedilla" unicode="&#xe7;" 
d="M324 -200c21 0 42 20 42 47s-21 47 -42 47h-78v110c-137 26 -217 168 -217 302c0 135 90 303 260 303c79 0 140 -32 211 -124l-78 -58c-50 67 -87 85 -131 85c-104 0 -161 -111 -161 -207c0 -90 54 -208 162 -208c45 0 100 30 136 85l78 -58c-53 -74 -117 -112 -182 -122
v-33c65 0 116 -56 116 -122s-51 -122 -116 -122c-66 0 -121 52 -121 117h74c0 -22 21 -42 47 -42z" />
    <glyph glyph-name="egrave" unicode="&#xe8;" horiz-adv-x="580" 
d="M293 0c-152 0 -260 142 -260 295c0 160 104 314 258 314c116 0 201 -67 201 -160c0 -101 -100 -169 -224 -169h-103c-17 0 -27 -10 -27 -28c0 -77 88 -153 153 -153c53 0 90 17 141 85l77 -58c-52 -70 -116 -126 -216 -126zM293 512c-72 0 -136 -59 -158 -149
c5 6 20 14 41 14h93c81 0 127 35 127 72c0 24 -24 63 -103 63zM290 663l-133 147h127l79 -147h-73z" />
    <glyph glyph-name="eacute" unicode="&#xe9;" horiz-adv-x="580" 
d="M293 0c-152 0 -260 142 -260 295c0 160 104 314 258 314c116 0 201 -67 201 -160c0 -101 -100 -169 -224 -169h-103c-17 0 -27 -10 -27 -28c0 -77 88 -153 153 -153c53 0 90 17 141 85l77 -58c-52 -70 -116 -126 -216 -126zM293 512c-72 0 -136 -59 -158 -149
c5 6 20 14 41 14h93c81 0 127 35 127 72c0 24 -24 63 -103 63zM422 810l-134 -147h-72l79 147h127z" />
    <glyph glyph-name="ecircumflex" unicode="&#xea;" horiz-adv-x="580" 
d="M293 0c-152 0 -260 142 -260 295c0 160 104 314 258 314c116 0 201 -67 201 -160c0 -101 -100 -169 -224 -169h-103c-17 0 -27 -10 -27 -28c0 -77 88 -153 153 -153c53 0 90 17 141 85l77 -58c-52 -70 -116 -126 -216 -126zM293 512c-72 0 -136 -59 -158 -149
c5 6 20 14 41 14h93c81 0 127 35 127 72c0 24 -24 63 -103 63zM344 694l-52 54l-53 -54h-109l142 142h40l142 -142h-110z" />
    <glyph glyph-name="edieresis" unicode="&#xeb;" horiz-adv-x="580" 
d="M293 0c-152 0 -260 142 -260 295c0 160 104 314 258 314c116 0 201 -67 201 -160c0 -101 -100 -169 -224 -169h-103c-17 0 -27 -10 -27 -28c0 -77 88 -153 153 -153c53 0 90 17 141 85l77 -58c-52 -70 -116 -126 -216 -126zM293 512c-72 0 -136 -59 -158 -149
c5 6 20 14 41 14h93c81 0 127 35 127 72c0 24 -24 63 -103 63zM216 699c-24 0 -47 21 -47 48v14c0 27 21 49 48 49s49 -22 49 -49v-14c0 -25 -22 -48 -50 -48zM362 699c-25 0 -49 18 -49 48v13c0 27 22 49 49 49s48 -22 48 -49v-13c0 -25 -21 -48 -48 -48z" />
    <glyph glyph-name="igrave" unicode="&#xec;" horiz-adv-x="210" 
d="M46 0v609h97v-609h-97zM93 684l-133 147h127l79 -147h-73z" />
    <glyph glyph-name="iacute" unicode="&#xed;" horiz-adv-x="210" 
d="M46 0v609h97v-609h-97zM225 839l-134 -147h-72l79 147h127z" />
    <glyph glyph-name="icircumflex" unicode="&#xee;" horiz-adv-x="210" 
d="M46 0v609h97v-609h-97zM146 708l-52 54l-53 -54h-109l142 142h40l142 -142h-110z" />
    <glyph glyph-name="idieresis" unicode="&#xef;" horiz-adv-x="210" 
d="M46 0v609h97v-609h-97zM20 726c-24 0 -47 21 -47 48v14c0 27 21 49 48 49s49 -22 49 -49v-14c0 -25 -22 -48 -50 -48zM166 726c-25 0 -49 18 -49 48v13c0 27 22 49 49 49s48 -22 48 -49v-13c0 -25 -21 -48 -48 -48z" />
    <glyph glyph-name="ntilde" unicode="&#xf1;" horiz-adv-x="590" 
d="M490 0h-97v372c0 79 -59 140 -127 140s-127 -61 -127 -140v-372h-97v372c0 129 99 237 224 237c123 0 224 -107 224 -237v-372zM328 689c-50 0 -80 36 -122 36c-18 0 -40 -6 -66 -28l-2 72c4 16 26 44 67 44c50 0 80 -37 121 -37c18 0 40 6 67 29l2 -72
c-4 -17 -26 -44 -67 -44z" />
    <glyph glyph-name="ugrave" unicode="&#xf9;" horiz-adv-x="585" 
d="M265 0c-125 0 -224 108 -224 238v371h97v-371c0 -80 59 -141 127 -141s127 61 127 141v371h97v-371c0 -131 -100 -238 -224 -238zM263 659l-133 147h127l79 -147h-73z" />
    <glyph glyph-name="uacute" unicode="&#xfa;" horiz-adv-x="585" 
d="M265 0c-125 0 -224 108 -224 238v371h97v-371c0 -80 59 -141 127 -141s127 61 127 141v371h97v-371c0 -131 -100 -238 -224 -238zM404 806l-134 -147h-72l79 147h127z" />
    <glyph glyph-name="ucircumflex" unicode="&#xfb;" horiz-adv-x="585" 
d="M265 0c-125 0 -224 108 -224 238v371h97v-371c0 -80 59 -141 127 -141s127 61 127 141v371h97v-371c0 -131 -100 -238 -224 -238zM320 713l-52 54l-53 -54h-109l142 142h40l142 -142h-110z" />
    <glyph glyph-name="udieresis" unicode="&#xfc;" horiz-adv-x="585" 
d="M265 0c-125 0 -224 108 -224 238v371h97v-371c0 -80 59 -141 127 -141s127 61 127 141v371h97v-371c0 -131 -100 -238 -224 -238zM189 694c-24 0 -47 21 -47 48v14c0 27 21 49 48 49s49 -22 49 -49v-14c0 -25 -22 -48 -50 -48zM335 694c-25 0 -49 18 -49 48v13
c0 27 22 49 49 49s48 -22 48 -49v-13c0 -25 -21 -48 -48 -48z" />
    <glyph glyph-name="yacute" unicode="&#xfd;" horiz-adv-x="612" 
d="M444 609h103l-245 -653c-34 -91 -113 -156 -203 -156h-48v95h48c57 0 119 62 119 125c0 29 -13 62 -21 85l-188 504h102l166 -448zM409 810l-134 -147h-72l79 147h127z" />
    <glyph glyph-name="ydieresis" unicode="&#xff;" horiz-adv-x="612" 
d="M444 609h103l-245 -653c-34 -91 -113 -156 -203 -156h-48v95h48c57 0 119 62 119 125c0 29 -13 62 -21 85l-188 504h102l166 -448zM203 690c-24 0 -47 21 -47 48v14c0 27 21 49 48 49s49 -22 49 -49v-14c0 -25 -22 -48 -50 -48zM349 690c-25 0 -49 18 -49 48v13
c0 27 22 49 49 49s48 -22 48 -49v-13c0 -25 -21 -48 -48 -48z" />
    <glyph glyph-name="trademark" unicode="&#x2122;" horiz-adv-x="580" 
d="M330 785l57 -124l58 124h74v-235h-59v135l-52 -135h-41l-52 135v-135h-59v235h74zM95 550v175h-66v59h191v-59h-66v-175h-59z" />
    <glyph glyph-name="copyright" unicode="&#xa9;" horiz-adv-x="575" 
d="M284 372c-122 0 -226 105 -226 227c0 125 104 224 226 224c125 0 223 -99 223 -224c0 -122 -98 -227 -223 -227zM284 759c-88 0 -160 -72 -160 -160s72 -160 160 -160s160 72 160 160s-72 160 -160 160zM284 488c-57 0 -103 44 -103 111c0 62 52 110 103 110
c41 0 74 -30 83 -44l-31 -38c-17 21 -30 27 -45 27c-36 0 -54 -31 -54 -55c0 -30 21 -55 52 -55c21 0 38 10 48 26l29 -38c-15 -24 -48 -44 -82 -44z" />
    <glyph glyph-name="registered" unicode="&#xae;" horiz-adv-x="549" 
d="M272 372c-122 0 -226 105 -226 227c0 125 104 224 226 224c125 0 223 -99 223 -224c0 -122 -98 -227 -223 -227zM272 759c-88 0 -160 -72 -160 -160s72 -160 160 -160s160 72 160 160s-72 160 -160 160zM366 490h-64l-39 87c-3 7 -6 9 -12 9h-4v-96h-58v224h104
c41 0 66 -31 66 -70c0 -23 -19 -45 -39 -53zM266 674h-19v-52h19c16 0 34 8 34 25c0 23 -17 27 -34 27z" />
    <glyph glyph-name="multiply" unicode="&#xd7;" horiz-adv-x="618" 
d="M140 79l-69 69l152 152l-152 152l69 69l152 -152l151 151l69 -69l-152 -151l152 -151l-69 -69l-151 151z" />
    <glyph glyph-name="caron" unicode="&#x2c7;" horiz-adv-x="388" 
d="M149 810l52 -54l53 54h109l-142 -142h-40l-142 142h110z" />
    <glyph glyph-name="Zcaron" unicode="&#x17d;" horiz-adv-x="766" 
d="M674 738l-507 -641h488v-97h-632v72l508 641h-488v97h631v-72zM297 991l52 -54l53 54h109l-142 -142h-40l-142 142h110z" />
    <glyph glyph-name="zcaron" unicode="&#x17e;" horiz-adv-x="598" 
d="M499 0h-475v72l349 440h-330v97h474v-72l-349 -440h331v-97zM231 805l52 -54l53 54h109l-142 -142h-40l-142 142h110z" />
    <glyph glyph-name="Lslash" unicode="&#x141;" horiz-adv-x="662" 
d="M-51 244v97l99 42v427h97v-385l119 51v-97l-119 -51v-231h428v-97h-525v286z" />
    <glyph glyph-name="lslash" unicode="&#x142;" horiz-adv-x="213" 
d="M-47 315v97l95 41v357h97v-315l92 40v-97l-92 -40v-398h-97v356z" />
    <glyph glyph-name="Scaron" unicode="&#x160;" horiz-adv-x="706" 
d="M318 0c-109 0 -208 21 -309 148l77 58c42 -55 92 -110 231 -110c126 0 192 57 192 143c0 72 -59 97 -199 131c-117 28 -275 69 -275 224c0 130 97 216 256 216c103 0 187 -24 279 -130l-77 -58c-77 76 -131 94 -203 94c-106 0 -158 -50 -158 -119c0 -75 60 -98 202 -133
c113 -28 272 -69 272 -225c0 -158 -131 -239 -288 -239zM245 996l52 -54l53 54h109l-142 -142h-40l-142 142h110z" />
    <glyph glyph-name="scaron" unicode="&#x161;" horiz-adv-x="546" 
d="M251 0c-105 0 -174 30 -235 124l77 59c37 -62 81 -85 157 -85c81 0 119 36 119 88c0 23 -6 34 -28 47c-80 47 -302 39 -302 207c0 102 81 169 195 169c69 0 141 -25 216 -124l-77 -59c-56 75 -100 85 -138 85c-60 0 -98 -28 -98 -72c0 -49 56 -64 130 -82
c40 -10 83 -18 125 -44c48 -30 75 -73 75 -129c0 -109 -91 -184 -216 -184zM188 803l52 -54l53 54h109l-142 -142h-40l-142 142h110z" />
    <glyph glyph-name="eth" unicode="&#xf0;" horiz-adv-x="613" 
d="M247 628v90l81 25c-37 43 -66 67 -66 67h114s16 -13 39 -40l134 41v-90l-81 -25c69 -116 104 -252 104 -392c0 -164 -119 -304 -267 -304c-162 0 -267 151 -267 304c0 165 117 305 267 305c49 0 93 -14 131 -38c-16 37 -34 70 -53 99zM305 514c-90 0 -170 -91 -170 -209
c0 -119 80 -208 170 -208c89 0 170 88 170 208c0 118 -80 209 -170 209z" />
    <glyph glyph-name="thorn" unicode="&#xfe;" horiz-adv-x="589" 
d="M47 810h97v-201h56c165 0 300 -137 300 -301s-135 -299 -300 -299c-42 0 -56 -16 -56 -37v-172h-97v1010zM199 511l-55 1v-414s7 8 55 8c111 0 203 91 203 202c0 112 -92 201 -203 203z" />
    <glyph glyph-name="Thorn" unicode="&#xde;" horiz-adv-x="690" 
d="M48 0v810h97v-201h242c119 0 215 -98 215 -216c0 -120 -97 -218 -216 -218h-204c-29 0 -36 -14 -37 -20v-155h-97zM386 272c65 1 118 56 118 121c0 66 -53 120 -118 120h-241v-247s7 6 39 6h202z" />
    <glyph glyph-name="Eth" unicode="&#xd0;" horiz-adv-x="728" 
d="M-42 363v97h89v350h248c195 0 331 -198 331 -404c0 -165 -105 -406 -331 -406h-248v363h-89zM144 97h150c125 0 234 142 234 309c0 174 -110 306 -233 306h-151v-252h89v-97h-89v-266z" />
    <glyph glyph-name="quoteright" unicode="&#x2019;" horiz-adv-x="252" 
d="M81 589l-35 43c19 16 24 48 24 92v87h97v-87c0 -63 -24 -97 -86 -135z" />
    <glyph glyph-name="quoteleft" unicode="&#x2018;" horiz-adv-x="252" 
d="M132 811l35 -43c-19 -16 -24 -48 -24 -92v-87h-97v87c0 63 24 97 86 135z" />
    <glyph glyph-name="degree" unicode="&#xb0;" horiz-adv-x="278" 
d="M143 578c-66 0 -118 55 -118 121c0 67 52 123 118 123c65 0 116 -56 116 -123c0 -66 -51 -121 -116 -121zM143 747c-23 0 -42 -20 -42 -48c0 -26 19 -46 42 -46c21 0 41 20 41 46c0 28 -20 48 -41 48z" />
    <glyph glyph-name="guilsinglright" unicode="&#x203a;" horiz-adv-x="353" 
d="M59 93l-2 135l92 90l-91 90v137l230 -227z" />
    <glyph glyph-name="guilsinglleft" unicode="&#x2039;" horiz-adv-x="385" 
d="M268 228l-2 -135l-229 225l230 227v-137l-91 -90z" />
    <glyph glyph-name="ellipsis" unicode="&#x2026;" horiz-adv-x="785" 
d="M71 58c0 40 31 72 71 72s72 -32 72 -72s-32 -71 -72 -71s-71 31 -71 71zM297 58c0 40 31 72 71 72s72 -32 72 -72s-32 -71 -72 -71s-71 31 -71 71zM523 58c0 40 31 72 71 72s72 -32 72 -72s-32 -71 -72 -71s-71 31 -71 71z" />
    <glyph glyph-name="asciicircum" unicode="^" horiz-adv-x="434" 
d="M285 620l-52 79l-53 -79h-109l142 192h40l142 -192h-110z" />
    <glyph glyph-name="quotedblleft" unicode="&#x201c;" horiz-adv-x="399" 
d="M139 811l35 -43c-19 -16 -24 -48 -24 -92v-87h-97v87c0 63 24 97 86 135zM279 811l35 -43c-19 -16 -24 -48 -24 -92v-87h-97v87c0 63 24 97 86 135z" />
    <glyph glyph-name="quotedblright" unicode="&#x201d;" horiz-adv-x="405" 
d="M232 589l-35 43c19 16 24 48 24 92v87h97v-87c0 -63 -24 -97 -86 -135zM92 589l-35 43c19 16 24 48 24 92v87h97v-87c0 -63 -24 -97 -86 -135z" />
    <glyph glyph-name="bullet" unicode="&#x2022;" horiz-adv-x="399" 
d="M79 298c0 59 46 106 105 106s106 -47 106 -106s-47 -105 -106 -105s-105 46 -105 105z" />
    <glyph glyph-name="endash" unicode="&#x2013;" horiz-adv-x="572" 
d="M63 244v97h375v-97h-375z" />
    <glyph glyph-name="emdash" unicode="&#x2014;" horiz-adv-x="734" 
d="M40 244v97h602v-97h-602z" />
    <glyph glyph-name="asciitilde" unicode="~" horiz-adv-x="466" 
d="M280 250c-50 0 -80 36 -122 36c-18 0 -40 -6 -66 -28l-2 72c4 16 26 44 67 44c50 0 80 -37 121 -37c18 0 40 6 67 29l2 -72c-4 -17 -26 -44 -67 -44z" />
    <glyph glyph-name="exclam" unicode="!" horiz-adv-x="288" 
d="M198 810l-30 -545h-57l-30 545h117zM139 146c41 0 70 -33 70 -73c0 -39 -28 -73 -69 -73c-43 0 -70 34 -70 73c0 40 28 73 69 73z" />
    </font>
</defs>
</svg>
